<svg version="1.1" width="512" height="512" viewBox="-180 -180 512 512" xmlns="http://www.w3.org/2000/svg">
  
<defs id="SvgjsDefs3203"><linearGradient 
id="SvgjsLinearGradient3210"><stop id="SvgjsStop3211" stop-color="#ef4136" offset="0"></stop><stop id="SvgjsStop3212" stop-color="#fbb040" offset="1"></stop></linearGradient></defs><g id="SvgjsG3204" featurekey="symbolFeature-0" transform="matrix(-33.01419822479292,0,0,-33.01419822479292,137.51898572369294,131.75966697275132)" fill="url(#SvgjsLinearGradient3210)"><g xmlns="http://www.w3.org/2000/svg"><g><polygon fill="url(#SvgjsLinearGradient3210)" points="2.179,1.009 0.989,2.171 1.872,3.302 2.465,3.292 3.062,2.759 2.767,2.428 2.292,2.852     2.085,2.856 1.583,2.211 2.358,1.453 3.225,1.453 4.014,2.49 4.014,1.759 3.443,1.009   "></polygon></g><g><polygon fill="url(#SvgjsLinearGradient3210)" points="2.544,1.708 1.947,2.242 2.242,2.571 2.717,2.148 2.923,2.145 3.426,2.79 2.649,3.547     1.784,3.547 0.985,2.499 0.985,3.23 1.565,3.991 2.83,3.991 4.014,2.833 4.014,2.824 3.137,1.697   "></polygon></g></g></g>
</svg>